<svg id="Layer_1" enable-background="new 0 0 512 512" height="512" viewBox="0 0 512 512" width="512" xmlns="http://www.w3.org/2000/svg">
    <g>
        <path
            d="m496.5 462.733h-2.664c1.027-2.638 1.597-5.503 1.597-8.5v-183.366c0-12.958-10.542-23.5-23.5-23.5h-94.064c1.027-2.638 1.597-5.503 1.597-8.5v-183.367c0-12.958-10.542-23.5-23.5-23.5h-199.933c-12.958 0-23.5 10.542-23.5 23.5v183.367c0 2.997.57 5.862 1.597 8.5h-94.063c-12.958 0-23.5 10.542-23.5 23.5v183.367c0 2.997.57 5.862 1.597 8.5h-2.664c-8.547 0-15.5 6.953-15.5 15.5v17.133c0 8.547 6.953 15.5 15.5 15.5h34.2v17.633c0 8.547 6.953 15.5 15.5 15.5h50.267c8.547 0 15.5-6.953 15.5-15.5v-17.633h250.066v17.633c0 8.547 6.953 15.5 15.5 15.5h50.267c8.547 0 15.5-6.953 15.5-15.5v-17.633h34.2c8.547 0 15.5-6.953 15.5-15.5v-17.133c0-8.548-6.953-15.501-15.5-15.501zm-16.066-191.866v183.367c0 4.687-3.814 8.5-8.5 8.5h-199.934c-4.687 0-8.5-3.813-8.5-8.5v-183.367c0-4.687 3.813-8.5 8.5-8.5h59.333v50.473c0 5.51 2.798 10.529 7.485 13.426 2.552 1.577 5.414 2.372 8.289 2.372 2.406 0 4.821-.558 7.068-1.681l17.44-8.72c.22-.11.481-.109.701 0l17.441 8.72h-.001c4.929 2.464 10.669 2.205 15.356-.691 4.688-2.897 7.485-7.916 7.485-13.426v-50.473h59.334c4.689 0 8.503 3.813 8.503 8.5zm-33.134 225h-382.6v-18.133h382.6zm-49.7-183.028c0 .12 0 .437-.371.667-.369.228-.656.087-.762.034h-.001l-17.44-8.72c-4.418-2.209-9.696-2.21-14.118 0l-17.44 8.72c-.107.053-.391.195-.763-.035-.371-.229-.371-.546-.371-.666v-50.473h51.266zm-115.967-265.839v50.473c0 .12 0 .437-.371.667-.37.228-.656.087-.762.034h-.001l-17.44-8.72c-4.421-2.211-9.698-2.21-14.117 0l-17.441 8.72c-.106.054-.39.196-.762-.034s-.372-.547-.372-.667v-50.473zm-134.1 191.867v-183.367c0-4.687 3.813-8.5 8.5-8.5h59.334v50.473c0 5.51 2.798 10.529 7.485 13.426 2.551 1.576 5.414 2.372 8.288 2.372 2.407-.001 4.822-.558 7.068-1.681l17.441-8.72c.22-.11.482-.109.701.001l17.442 8.72h-.001c4.929 2.465 10.669 2.206 15.356-.69 4.688-2.897 7.485-7.916 7.485-13.426v-50.475h59.334c4.686 0 8.5 3.813 8.5 8.5v183.367c0 4.687-3.814 8.5-8.5 8.5h-17.134-66.832-32-66.834-17.133c-4.687 0-8.5-3.813-8.5-8.5zm18.133 23.5v50.473c0 .12 0 .436-.372.667-.371.229-.655.087-.762.034l-17.441-8.72c-4.42-2.211-9.698-2.21-14.117 0l-17.442 8.721c-.106.053-.391.194-.762-.034-.372-.23-.372-.547-.372-.667v-50.473h51.268zm-134.099 191.866v-183.366c0-4.687 3.813-8.5 8.5-8.5h59.333v50.473c0 5.51 2.798 10.529 7.486 13.426 2.551 1.577 5.414 2.372 8.288 2.372 2.407 0 4.822-.558 7.068-1.681l17.442-8.721c.219-.109.48-.109.7 0l17.441 8.72c4.929 2.464 10.669 2.205 15.357-.691 4.687-2.897 7.485-7.916 7.485-13.426v-50.473h59.333c4.687 0 8.5 3.813 8.5 8.5v183.367c0 4.687-3.813 8.5-8.5 8.5h-199.933c-4.687 0-8.5-3.813-8.5-8.5zm-16.567 41.134v-17.133c0-.276.224-.5.5-.5h34.2v18.133h-34.2c-.276 0-.5-.224-.5-.5zm100.967 33.133c0 .276-.224.5-.5.5h-50.267c-.276 0-.5-.224-.5-.5v-17.633h51.267zm331.333 0c0 .276-.225.5-.5.5h-50.267c-.275 0-.5-.224-.5-.5v-17.633h51.267zm49.7-33.133c0 .276-.225.5-.5.5h-34.2v-18.133h34.2c.275 0 .5.224.5.5z" />
    </g>
</svg>